#!OML:ASF E:\Style4\Style4.ASF
:FULLY-SPECIFIED
:DEGREES
1285
root 0.345461 17.6553 -1.46493 -1.04589 -2.52525 3.41007
lowerback 6.22456 2.44945 -0.950674
upperback 2.2154 3.19243 -0.513236
thorax -1.22619 1.59272 -0.223617
lowerneck 1.77258 -3.72344 -6.05714
upperneck 9.61771 -5.17745 3.22234
head 3.06617 -2.68588 1.9926
rclavicle -2.59414e-014 1.03368e-014
rhumerus 37.0087 -1.87435 -42.3937
rradius 79.4308
rwrist -2.1426
rhand -29.0089 25.2957
rfingers 7.12502
rthumb -2.36035 -4.67101
lclavicle -2.59414e-014 1.03368e-014
lhumerus 30.9132 -6.27119 40.3516
lradius 92.5697
lwrist 15.3213
lhand -23.5872 22.0571
lfingers 7.12502
lthumb 2.87604 52.0174
rfemur -14.923 2.40632 13.5947
rtibia 36.0617
rfoot -18.8025 -11.6537
rtoes -14.2027
lfemur -11.8929 0.591496 -23.4892
ltibia 32.2903
lfoot -19.8845 7.73534
ltoes -11.9257
1286
root 0.344917 17.6656 -1.45356 -0.919225 -2.50057 3.40449
lowerback 6.13125 2.46804 -0.904285
upperback 2.15231 3.22036 -0.545129
thorax -1.235 1.60703 -0.281536
lowerneck 1.6666 -3.7808 -6.08501
upperneck 9.55791 -5.25988 3.37671
head 3.07693 -2.72218 2.04562
rclavicle 2.96935e-014 7.95139e-015
rhumerus 35.7051 -1.41598 -42.6836
rradius 81.0638
rwrist -1.3489
rhand -28.9674 24.9256
rfingers 7.12502
rthumb -2.32024 -5.0415
lclavicle 2.96935e-014 7.95139e-015
lhumerus 29.6479 -7.13058 40.886
lradius 94.0317
lwrist 14.5904
lhand -23.7774 22.0598
lfingers 7.12502
lthumb 2.69231 52.0226
rfemur -14.8762 2.37595 13.5994
rtibia 35.8086
rfoot -18.7045 -11.6697
rtoes -14.558
lfemur -11.8558 0.514601 -23.4886
ltibia 32.0366
lfoot -19.7661 7.80258
ltoes -11.9785
1287
root 0.345494 17.6763 -1.44088 -0.800172 -2.50253 3.43076
lowerback 6.03802 2.49144 -0.909413
upperback 2.06541 3.25147 -0.57111
thorax -1.27143 1.62285 -0.305598
lowerneck 1.59056 -3.82064 -6.14852
upperneck 9.54648 -5.31898 3.50827
head 3.09821 -2.74938 2.09852
rclavicle -1.01877e-014 1.19271e-014
rhumerus 34.3239 -0.867193 -43.0104
rradius 82.791
rwrist -0.542954
rhand -28.8267 24.2869
rfingers 7.12502
rthumb -2.18434 -5.68169
lclavicle -1.01877e-014 1.19271e-014
lhumerus 28.3271 -7.99885 41.4954
lradius 95.4615
lwrist 13.9197
lhand -24.0364 22.2257
lfingers 7.12502
lthumb 2.44216 52.1914
rfemur -14.8178 2.33772 13.5596
rtibia 35.5512
rfoot -18.6437 -11.6265
rtoes -14.2538
lfemur -11.8107 0.418596 -23.5291
ltibia 31.7825
lfoot -19.6684 7.88467
ltoes -11.8075
1288
root 0.345642 17.6875 -1.42785 -0.682114 -2.45559 3.34134
lowerback 5.9364 2.47264 -0.84867
upperback 1.99205 3.23165 -0.526836
thorax -1.28958 1.61312 -0.289978
lowerneck 1.52669 -3.83057 -6.18205
upperneck 9.51027 -5.3315 3.55279
head 3.10145 -2.75477 2.11825
rclavicle -1.44119e-014 -7.15625e-015
rhumerus 32.9835 -0.232587 -43.3621
rradius 84.4349
rwrist 0.428395
rhand -28.9063 23.9657
rfingers 7.12502
rthumb -2.26126 -6.00206
lclavicle -1.44119e-014 -7.15625e-015
lhumerus 26.8723 -8.80675 42.1809
lradius 96.8405
lwrist 13.2047
lhand -24.3958 22.3429
lfingers 7.12502
lthumb 2.0951 52.3124
rfemur -14.7325 2.30017 13.6467
rtibia 35.29
rfoot -18.6339 -11.5721
rtoes -13.8136
lfemur -11.7652 0.315544 -23.43
ltibia 31.5555
lfoot -19.6188 7.85631
ltoes -11.6295
1289
root 0.342472 17.6978 -1.41712 -0.567746 -2.37482 3.24948
lowerback 5.85308 2.41951 -0.817611
upperback 1.94127 3.16415 -0.4899
thorax -1.29576 1.5795 -0.26229
lowerneck 1.43965 -3.80143 -6.25383
upperneck 9.39747 -5.29792 3.7129
head 3.08616 -2.73469 2.18509
rclavicle 2.58669e-014 1.15295e-014
rhumerus 31.7463 0.429918 -43.7359
rradius 85.9446
rwrist 1.50261
rhand -29.0819 23.7116
rfingers 7.12502
rthumb -2.43082 -6.2543
lclavicle 2.58669e-014 1.15295e-014
lhumerus 25.3426 -9.59158 42.8275
lradius 98.1945
lwrist 12.4946
lhand -24.9621 22.4081
lfingers 7.12502
lthumb 1.5482 52.3822
rfemur -14.6538 2.3023 13.7657
rtibia 35.0367
rfoot -18.5881 -11.6538
rtoes -13.6784
lfemur -11.7419 0.257446 -23.3166
ltibia 31.3491
lfoot -19.5148 7.92828
ltoes -12.3639
1290
root 0.338215 17.7055 -1.40862 -0.430298 -2.31502 3.18677
lowerback 5.73948 2.38969 -0.82373
upperback 1.91142 3.12595 -0.461094
thorax -1.26512 1.56043 -0.222342
lowerneck 1.35704 -3.806 -6.25033
upperneck 9.23038 -5.30034 3.76035
head 3.04598 -2.73262 2.19926
rclavicle 1.50828e-014 3.97569e-015
rhumerus 30.5315 1.02513 -44.1424
rradius 87.4754
rwrist 2.58472
rhand -28.8805 23.1685
rfingers 7.12502
rthumb -2.23635 -6.79955
lclavicle 1.50828e-014 3.97569e-015
lhumerus 23.7351 -10.3391 43.6142
lradius 99.5193
lwrist 11.6789
lhand -25.3611 22.3643
lfingers 7.12502
lthumb 1.16283 52.3409
rfemur -14.6364 2.3133 13.8595
rtibia 34.7951
rfoot -18.4731 -11.7862
rtoes -13.8937
lfemur -11.7712 0.201467 -23.2266
ltibia 31.1625
lfoot -19.4454 7.98435
ltoes -12.909
1291
root 0.335226 17.7136 -1.39929 -0.340638 -2.25048 3.09702
lowerback 5.68185 2.35578 -0.778341
upperback 1.88172 3.08428 -0.438434
thorax -1.26235 1.5397 -0.219804
lowerneck 1.2451 -3.80614 -6.18286
upperneck 9.15475 -5.29276 3.74599
head 3.03703 -2.72548 2.18065
rclavicle -3.22777e-014 1.94809e-014
rhumerus 29.2937 1.64678 -44.6691
rradius 88.9442
rwrist 3.75679
rhand -28.6225 22.7822
rfingers 7.12502
rthumb -1.98716 -7.18826
lclavicle -3.22777e-014 1.94809e-014
lhumerus 21.9445 -10.9978 44.4855
lradius 100.843
lwrist 10.8233
lhand -25.4082 22.3116
lfingers 7.12502
lthumb 1.11733 52.2885
rfemur -14.5546 2.27996 13.9722
rtibia 34.5711
rfoot -18.3963 -11.8237
rtoes -13.9351
lfemur -11.7511 0.120684 -23.1111
ltibia 30.9947
lfoot -19.3636 7.90821
ltoes -12.4895
1292
root 0.333329 17.7201 -1.38772 -0.295009 -2.22162 3.09561
lowerback 5.66602 2.32507 -0.825501
upperback 1.86092 3.04083 -0.439928
thorax -1.27715 1.51802 -0.191993
lowerneck 1.09565 -3.79058 -6.19138
upperneck 9.10234 -5.26907 3.82742
head 3.04895 -2.7101 2.20812
rclavicle 4.75592e-014 -7.15625e-015
rhumerus 28.0454 2.33233 -45.29
rradius 90.2836
rwrist 5.06903
rhand -28.5526 22.4615
rfingers 7.12502
rthumb -1.91959 -7.50965
lclavicle 4.75592e-014 -7.15625e-015
lhumerus 20.1038 -11.6293 45.3128
lradius 102.137
lwrist 9.97681
lhand -25.3636 22.3348
lfingers 7.12502
lthumb 1.16037 52.3114
rfemur -14.4422 2.21042 13.9751
rtibia 34.3739
rfoot -18.3146 -11.831
rtoes -14.2801
lfemur -11.6635 0.0373083 -23.1082
ltibia 30.8397
lfoot -19.2503 7.8247
ltoes -11.7037
